<svg width="79" height="75" viewBox="0 0 79 75" fill="none" xmlns="http://www.w3.org/2000/svg">
<path d="M3.49561 47.8263H76.9026C76.9026 61.4408 65.8658 72.4776 52.2513 72.4776H28.147C14.5324 72.4776 3.49561 61.4408 3.49561 47.8263Z" fill="#333232"/>
<rect x="62.1349" y="8.21349" width="1.77528" height="37.2809" fill="#333232"/>
<path d="M63.0224 14.427C63.0224 12.8736 63.0224 9.31415 63.0224 7.32584C63.0224 2.88764 57.6966 2 55.3665 2C53.0365 1.99999 50.5955 1.94675 49.7078 2.44382C48.8202 2.94089 47.0449 4.17471 47.0449 6.66011C47.0449 8.54986 47.0449 9.76684 47.0449 9.76684" stroke="#333232" stroke-width="2"/>
<path d="M39.9438 13.2408C39.9438 8.99362 43.3869 5.55057 47.6341 5.55057C51.8813 5.55057 55.3244 8.99362 55.3244 13.2408V13.7677H39.9438V13.2408Z" fill="#333232"/>
<rect y="45.93" width="79" height="1.26417" rx="0.632087" fill="#333232"/>
<rect width="1.39605" height="8.86603" rx="0.698027" transform="matrix(0.983923 0.178596 -0.204236 0.978922 41.4663 16.3033)" fill="#333232"/>
<rect x="46.8407" y="17.2306" width="1.39823" height="8.84921" rx="0.699115" fill="#333232"/>
<rect width="1.39576" height="8.86833" rx="0.697878" transform="matrix(0.992023 -0.126053 0.1536 0.988133 52.4336 18.2941)" fill="#333232"/>
<rect width="4.6335" height="8.55786" rx="2.31675" transform="matrix(0.816777 -0.576954 0.653836 0.756636 61.743 68.2435)" fill="#333232"/>
<rect width="4.69177" height="8.44341" rx="2.34588" transform="matrix(0.886491 0.462745 -0.538201 0.842816 18.6763 65.4553)" fill="#333232"/>
</svg>
