<svg width="85" height="63" viewBox="0 0 85 63" fill="none" xmlns="http://www.w3.org/2000/svg">
<path fill-rule="evenodd" clip-rule="evenodd" d="M30.1187 0C26.2527 0 23.1187 3.134 23.1187 6.99999V42.4572C23.1187 45.6636 25.2744 48.3664 28.2156 49.1954V50.9869H31.043V58.4392C31.043 60.6483 32.8338 62.4392 35.043 62.4392H55.4969H56.5759C58.785 62.4392 60.5759 60.6483 60.5759 58.4392V51.6924C60.5759 50.5879 61.4713 49.6924 62.5759 49.6924H65.6943V47.6924H62.5759C60.3667 47.6924 58.5759 49.4833 58.5759 51.6924V58.4392C58.5759 59.5437 57.6804 60.4392 56.5759 60.4392H55.4969H35.043C33.9384 60.4392 33.043 59.5437 33.043 58.4392V50.9869H34.3564V55.125C34.3564 57.3342 36.1473 59.125 38.3564 59.125H52.7692C54.9661 59.125 56.7975 57.3464 56.7975 55.125V46.6298C56.7975 45.9277 57.3667 45.3586 58.0688 45.3586H60.34H66.2035V43.3586H60.34H58.0688C56.2621 43.3586 54.7975 44.8232 54.7975 46.6298V55.125C54.7975 56.2174 53.886 57.125 52.7692 57.125H38.3564C37.2519 57.125 36.3564 56.2296 36.3564 55.125V50.9869H39.4327V49.4572H45.1812C49.0472 49.4572 52.1812 46.3232 52.1812 42.4572V7C52.1812 3.13401 49.0471 0 45.1812 0H30.1187Z" fill="black"/>
</svg>
