<svg width="80" height="69" viewBox="0 0 80 69" fill="none" xmlns="http://www.w3.org/2000/svg">
<path fill-rule="evenodd" clip-rule="evenodd" d="M0 0H80V68.0851H0V0ZM11.0638 23.8298H68.0851V56.1702H11.0638V23.8298ZM14.4681 15.3191C16.8182 15.3191 18.7234 13.6045 18.7234 11.4894C18.7234 9.37422 16.8182 7.65957 14.4681 7.65957C12.1179 7.65957 10.2128 9.37422 10.2128 11.4894C10.2128 13.6045 12.1179 15.3191 14.4681 15.3191ZM31.4894 11.4894C31.4894 13.6045 29.5842 15.3191 27.234 15.3191C24.8839 15.3191 22.9787 13.6045 22.9787 11.4894C22.9787 9.37422 24.8839 7.65957 27.234 7.65957C29.5842 7.65957 31.4894 9.37422 31.4894 11.4894ZM40 15.3191C42.3502 15.3191 44.2553 13.6045 44.2553 11.4894C44.2553 9.37422 42.3502 7.65957 40 7.65957C37.6499 7.65957 35.7447 9.37422 35.7447 11.4894C35.7447 13.6045 37.6499 15.3191 40 15.3191ZM57.0213 11.4894C57.0213 13.6045 55.1161 15.3191 52.7659 15.3191C50.4158 15.3191 48.5106 13.6045 48.5106 11.4894C48.5106 9.37422 50.4158 7.65957 52.7659 7.65957C55.1161 7.65957 57.0213 9.37422 57.0213 11.4894ZM65.5319 15.3191C67.882 15.3191 69.7872 13.6045 69.7872 11.4894C69.7872 9.37422 67.882 7.65957 65.5319 7.65957C63.1817 7.65957 61.2766 9.37422 61.2766 11.4894C61.2766 13.6045 63.1817 15.3191 65.5319 15.3191Z" fill="#333232"/>
<rect x="7.65955" y="30.6383" width="63.8298" height="1.70213" fill="#333232"/>
</svg>
