<svg width="85" height="62" viewBox="0 0 85 62" fill="none" xmlns="http://www.w3.org/2000/svg">
<path fill-rule="evenodd" clip-rule="evenodd" d="M0 7.13333C0 5.47648 1.34315 4.13333 3 4.13333H82C83.6569 4.13333 85 5.47648 85 7.13333V58.8868C85 60.5436 83.6569 61.8868 82 61.8868H3C1.34315 61.8868 0 60.5436 0 58.8868V7.13333ZM3.69565 9.814H56.3587V55.2593H3.69565V9.814ZM79.4565 9.814H60.9782V55.2593H79.4565V9.814Z" fill="#1B1A1A"/>
<path d="M5.54346 24.7342C11.5489 24.7342 14.7827 35.6221 29.5652 24.7342C36.4946 19.6304 40.1902 19.0535 54.9728 29.468" stroke="#1B1A1A" stroke-width="4"/>
<path d="M5.54346 39.8826C11.5489 39.8826 14.7827 50.7706 29.5652 39.8826C36.4946 34.7789 40.1902 34.2019 54.9728 44.6164" stroke="#1B1A1A" stroke-width="4"/>
</svg>
