<svg width="60" height="40" viewBox="0 0 60 40" fill="none" xmlns="http://www.w3.org/2000/svg">
<path fill-rule="evenodd" clip-rule="evenodd" d="M0 3C0 1.34315 1.34315 0 3 0H57C58.6569 0 60 1.34315 60 3V36.4521C60 38.1089 58.6569 39.4521 57 39.4521H3C1.34315 39.4521 0 38.1089 0 36.4521V3ZM2.6087 3.88053H39.7826V34.9248H2.6087V3.88053ZM56.0869 3.88053H43.0435V34.9248H56.0869V3.88053Z" fill="#1B1A1A"/>
<path d="M3.91309 14.0727C8.15222 14.0727 10.4349 21.5104 20.8696 14.0727C25.7609 10.5863 28.3696 10.1921 38.8044 17.3064" stroke="#1B1A1A" stroke-width="4"/>
<path d="M3.91309 24.4208C8.15222 24.4208 10.4349 31.8584 20.8696 24.4208C25.7609 20.9343 28.3696 20.5402 38.8044 27.6545" stroke="#1B1A1A" stroke-width="4"/>
</svg>
