<svg width="52" height="52" viewBox="0 0 52 52" fill="none" xmlns="http://www.w3.org/2000/svg">
<rect width="52" height="52" rx="10" fill="#1BCC22"/>
<rect x="2" y="2" width="48" height="48" rx="5" stroke="#030303" stroke-width="4"/>
<path fill-rule="evenodd" clip-rule="evenodd" d="M21.1667 11.0356C21.1667 9.66897 19.864 8.67517 18.6083 9.21455C11.7812 12.1472 7 18.9319 7 26.8333C7 37.4188 15.5812 46 26.1667 46C36.7521 46 45.3333 37.4188 45.3333 26.8333C45.3333 18.9319 40.5521 12.1472 33.725 9.21455C32.4693 8.67517 31.1667 9.66897 31.1667 11.0356V11.0356C31.1667 11.9186 31.7319 12.6925 32.5331 13.0636C37.7291 15.4699 41.3333 20.7307 41.3333 26.8333C41.3333 35.2096 34.543 42 26.1667 42C17.7903 42 11 35.2096 11 26.8333C11 20.7307 14.6043 15.4699 19.8002 13.0636C20.6015 12.6925 21.1667 11.9186 21.1667 11.0356V11.0356Z" fill="black"/>
<rect x="24" y="6" width="5" height="23" rx="2" fill="black"/>
</svg>
