<svg width="85" height="62" viewBox="0 0 85 62" fill="none" xmlns="http://www.w3.org/2000/svg">
<path fill-rule="evenodd" clip-rule="evenodd" d="M49.6111 47.7552C56.0397 45.3581 60.659 40.1067 61.2463 33.8889H22.2778C22.8542 39.9909 27.3137 45.1622 33.5556 47.6183V49.1481H41.7471C41.7521 49.1481 41.7571 49.1481 41.762 49.1481C41.767 49.1481 41.772 49.1481 41.777 49.1481H49.6111V47.7552Z" fill="#131313"/>
<rect x="15.6667" y="22.3333" width="51.9444" height="1.92593" fill="#131313"/>
<path fill-rule="evenodd" clip-rule="evenodd" d="M75.1667 5H10V57H75.1667V5ZM67.6111 16.5556H16.6111V49.2963H67.6111V16.5556ZM19.4443 8.85185H25.111V12.7037H19.4443V8.85185ZM34.5556 8.85185H28.8889V12.7037H34.5556V8.85185ZM39.2778 8.85185H44.9445V12.7037H39.2778V8.85185ZM60.0927 8.85185C59.029 8.85185 58.1667 9.71412 58.1667 10.7778C58.1667 11.8414 59.029 12.7037 60.0927 12.7037H61.9075C62.9711 12.7037 63.8334 11.8414 63.8334 10.7778C63.8334 9.71412 62.9711 8.85185 61.9075 8.85185H60.0927Z" fill="#131313"/>
</svg>
