<svg width="76" height="85" viewBox="0 0 76 85" fill="none" xmlns="http://www.w3.org/2000/svg">
<path fill-rule="evenodd" clip-rule="evenodd" d="M35.8264 0C34.2746 0 33.0165 1.25804 33.0165 2.80992C33.0165 3.05248 33.0473 3.28787 33.1051 3.5124H8C3.58172 3.5124 0 7.09412 0 11.5124V16.157H4.91736V77C4.91736 81.4183 8.49907 85 12.9174 85H62.9504C67.3687 85 70.9504 81.4183 70.9504 77V16.157H75.1653V11.5124C75.1653 7.09412 71.5836 3.5124 67.1653 3.5124H42.0602C42.118 3.28787 42.1488 3.05248 42.1488 2.80992C42.1488 1.25804 40.8907 0 39.3388 0H35.8264ZM35.314 28.0992C33.6571 28.0992 32.314 29.4423 32.314 31.0992V72.1653C32.314 73.8221 33.6571 75.1653 35.314 75.1653H40.5537C42.2105 75.1653 43.5537 73.8222 43.5537 72.1653V31.0992C43.5537 29.4423 42.2105 28.0992 40.5537 28.0992H35.314ZM16.3471 28.0992C14.6903 28.0992 13.3471 29.4423 13.3471 31.0992V72.1653C13.3471 73.8222 14.6902 75.1653 16.3471 75.1653H21.5868C23.2436 75.1653 24.5868 73.8222 24.5868 72.1653V31.0992C24.5868 29.4423 23.2436 28.0992 21.5868 28.0992H16.3471ZM51.2809 31.0992C51.2809 29.4423 52.6241 28.0992 54.2809 28.0992H59.5206C61.1775 28.0992 62.5206 29.4423 62.5206 31.0992V72.1653C62.5206 73.8222 61.1775 75.1653 59.5206 75.1653H54.2809C52.6241 75.1653 51.2809 73.8221 51.2809 72.1653V31.0992Z" fill="#1F1F1F"/>
</svg>
